<svg width="1376" height="574" viewBox="0 0 1376 574" fill="none" xmlns="http://www.w3.org/2000/svg">
<g clip-path="url(#clip0_8158_57)">
<path d="M756.8 161.2H619.2V574H756.8V161.2Z" fill="#F4F4F4"/>
<path d="M963.2 0.666687H825.6V574H963.2V0.666687Z" fill="#F4F4F4"/>
<path d="M1169.6 0.666687H1032V574H1169.6V0.666687Z" fill="#F4F4F4"/>
<path d="M435.733 161.2C381.611 161.2 348.472 187.344 332.533 228.853C316.595 187.344 283.456 161.2 229.333 161.2C185.875 161.2 155.947 178.056 137.6 206.264V161.2H0V574H137.6V298.8C137.6 264.4 149.067 252.933 172 252.933C194.933 252.933 206.4 264.4 206.4 298.8V574H344V298.8C344 264.4 355.467 252.933 378.4 252.933C401.333 252.933 412.8 264.4 412.8 298.8V574H550.4V298.8C550.4 218.533 516 161.2 435.733 161.2Z" fill="#F4F4F4"/>
<path d="M688 115.333C725.997 115.333 756.8 89.6643 756.8 58C756.8 26.3357 725.997 0.666687 688 0.666687C650.003 0.666687 619.2 26.3357 619.2 58C619.2 89.6643 650.003 115.333 688 115.333Z" fill="#F4F4F4"/>
<path d="M1307.2 115.333C1345.2 115.333 1376 89.6643 1376 58C1376 26.3357 1345.2 0.666687 1307.2 0.666687C1269.2 0.666687 1238.4 26.3357 1238.4 58C1238.4 89.6643 1269.2 115.333 1307.2 115.333Z" fill="#F4F4F4"/>
<path d="M1376 161.2H1238.4V574H1376V161.2Z" fill="#F4F4F4"/>
</g>
<defs>
<clipPath id="clip0_8158_57">
<rect width="1376" height="573.333" fill="white" transform="translate(0 0.666687)"/>
</clipPath>
</defs>
</svg>
